<?xml version="1.0" encoding="UTF-8"?>
<svg id="Layer_1" xmlns="http://www.w3.org/2000/svg" version="1.1" viewBox="0 0 49.53 33.36">
  <!-- Generator: Adobe Illustrator 29.7.1, SVG Export Plug-In . SVG Version: 2.1.1 Build 8)  -->
  <defs>
    <style>
      .st0 {
        fill: #c1272d;
      }

      .st1 {
        fill: #ed1e79;
      }

      .st2 {
        fill: #f15a24;
      }

      .st3 {
        fill: #00a99d;
      }

      .st4 {
        fill: none;
        stroke: #231f20;
        stroke-miterlimit: 10;
      }
    </style>
  </defs>
  <path class="st4" d="M.76,10.84c.2-.33.35-.53.77-.6L47.65.71c.58-.12,1.19,0,1.25.68l-11.24,30.69c-.26.51-.6.7-1.17.51l-9.34-6.04-9.09,6.04c-.35.12-.86.09-1.07-.24l-2.49-13.56c-4.06-2.29-8.32-4.26-12.39-6.53-.48-.27-1.02-.49-1.35-.96v-.47ZM42.22,3.51L4.06,11.5l10.93,5.76.37.06L42.22,3.51ZM46.36,3.79l-24.06,17.63,14.19,9.26L46.36,3.79ZM39.12,6.99l-22.92,11.67,1.63,9.48.14.09,2.31-7.33,18.84-13.92ZM25.68,25.51l-4.42-2.73-2.07,7.05,6.49-4.32Z"/>
  <polygon class="st1" points="46.36 3.79 36.49 30.68 22.3 21.42 46.36 3.79"/>
  <polygon class="st2" points="42.22 3.51 15.36 17.31 14.99 17.26 4.06 11.5 42.22 3.51"/>
  <polygon class="st0" points="39.12 6.99 20.28 20.91 17.97 28.23 17.83 28.14 16.2 18.66 39.12 6.99"/>
  <polygon class="st3" points="25.68 25.51 19.19 29.83 21.26 22.78 25.68 25.51"/>
</svg>