<?xml version="1.0" encoding="UTF-8"?>
<svg id="Layer_1" xmlns="http://www.w3.org/2000/svg" version="1.1" viewBox="0 0 73.38 49.06">
  <!-- Generator: Adobe Illustrator 29.7.1, SVG Export Plug-In . SVG Version: 2.1.1 Build 8)  -->
  <defs>
    <style>
      .st0 {
        fill: #c1272d;
      }

      .st1 {
        fill: #ed1e79;
      }

      .st2 {
        fill: #f15a24;
      }

      .st3 {
        fill: #00a99d;
      }

      .st4 {
        fill: none;
        stroke: #231f20;
        stroke-miterlimit: 10;
      }
    </style>
  </defs>
  <path class="st4" d="M.65,15.95c.3-.5.52-.8,1.15-.9L70.99.76c.88-.19,1.79.01,1.87,1.02l-16.86,46.04c-.39.76-.9,1.05-1.76.77l-14.01-9.07-13.64,9.07c-.52.18-1.29.14-1.61-.35l-3.73-20.35c-6.09-3.44-12.48-6.38-18.58-9.8-.72-.41-1.54-.74-2.02-1.43v-.71ZM62.84,4.95L5.59,16.94l16.4,8.64.56.08L62.84,4.95ZM69.05,5.38l-36.1,26.44,21.29,13.89,14.81-40.33ZM58.19,10.17L23.8,27.68l2.44,14.22.21.14,3.47-10.99,28.26-20.88ZM38.02,37.95l-6.63-4.09-3.1,10.58,9.73-6.48Z"/>
  <polygon class="st1" points="69.05 5.38 54.24 45.71 32.95 31.82 69.05 5.38"/>
  <polygon class="st2" points="62.84 4.95 22.55 25.66 21.99 25.57 5.59 16.94 62.84 4.95"/>
  <polygon class="st0" points="58.19 10.17 29.92 31.05 26.46 42.04 26.25 41.9 23.8 27.68 58.19 10.17"/>
  <polygon class="st3" points="38.02 37.95 28.29 44.44 31.4 33.86 38.02 37.95"/>
</svg>