<?xml version="1.0" encoding="UTF-8"?>
<svg id="Layer_1" xmlns="http://www.w3.org/2000/svg" version="1.1" viewBox="0 0 25.22 17.12">
  <!-- Generator: Adobe Illustrator 29.7.1, SVG Export Plug-In . SVG Version: 2.1.1 Build 8)  -->
  <defs>
    <style>
      .st0 {
        fill: #c1272d;
      }

      .st1 {
        fill: #ed1e79;
      }

      .st2 {
        fill: #f15a24;
      }

      .st3 {
        fill: #00a99d;
      }

      .st4 {
        fill: none;
        stroke: #231f20;
        stroke-miterlimit: 10;
      }
    </style>
  </defs>
  <path class="st4" d="M.57,5.62c.1-.17.17-.27.38-.3L24.02.55c.29-.06.6,0,.62.34l-5.62,15.35c-.13.25-.3.35-.59.26l-4.67-3.02-4.55,3.02c-.17.06-.43.05-.54-.12l-1.24-6.78c-2.03-1.15-4.16-2.13-6.19-3.27-.24-.14-.51-.25-.67-.48v-.24ZM21.3,1.95L2.22,5.95l5.47,2.88.19.03L21.3,1.95ZM23.37,2.09l-12.03,8.81,7.1,4.63,4.94-13.44ZM19.75,3.69l-11.46,5.84.81,4.74.07.05,1.16-3.66,9.42-6.96ZM13.03,12.95l-2.21-1.36-1.03,3.53,3.24-2.16Z"/>
  <polygon class="st1" points="23.37 2.09 18.43 15.54 11.34 10.91 23.37 2.09"/>
  <polygon class="st2" points="21.3 1.95 7.87 8.85 7.68 8.82 2.22 5.95 21.3 1.95"/>
  <polygon class="st0" points="19.75 3.69 10.33 10.65 9.17 14.31 9.1 14.27 8.29 9.53 19.75 3.69"/>
  <polygon class="st3" points="13.03 12.95 9.78 15.11 10.82 11.59 13.03 12.95"/>
</svg>