<?xml version="1.0" encoding="UTF-8"?>
<svg id="Layer_1" xmlns="http://www.w3.org/2000/svg" version="1.1" viewBox="0 0 128 128">
  <!-- Generator: Adobe Illustrator 29.7.1, SVG Export Plug-In . SVG Version: 2.1.1 Build 8)  -->
  <defs>
    <style>
      .st0 {
        fill: #242776;
      }

      .st1 {
        fill: #2e368f;
      }
    </style>
  </defs>
  <path d="M.96,50.38l.89-.95,122.71-25.53c1.31-.12,2.38.66,2.49,1.98l-29.94,81.37c-.87.77-1.92.76-2.91.22l-24.13-15.68-23.67,15.73c-1.15.74-2.9.21-3.28-1.17l-6.19-34.87L3.01,53.62l-2.05-1.77v-1.48ZM109.54,31.42L9.57,52.34c8.69,4.17,17.01,9.07,25.6,13.43.71.36,3.51,1.91,4.01,1.8L109.54,31.42ZM120.38,32.16l-63.03,46.17,37.17,24.25,25.86-70.42ZM101.42,40.53l-60.04,30.57,4.4,25.08,5.65-18.11.61-1.11,49.38-36.43ZM65.96,89.52l-.26-.6-11.07-7.03-5.42,18.47,16.74-10.84Z"/>
  <polygon class="st1" points="120.38 32.16 94.52 102.58 57.35 78.33 120.38 32.16"/>
  <path class="st1" d="M109.54,31.42l-70.36,36.15c-.5.11-3.3-1.44-4.01-1.8-8.59-4.36-16.92-9.25-25.6-13.43l99.97-20.92Z"/>
  <polygon class="st0" points="101.42 40.53 52.04 76.96 51.42 78.07 45.77 96.18 41.38 71.1 101.42 40.53"/>
  <polygon class="st0" points="65.96 89.52 49.22 100.36 54.64 81.9 65.7 88.93 65.96 89.52"/>
  <path d="M66.61,24.78"/>
</svg>